<svg width="41" height="40" viewBox="0 0 41 40" fill="none" xmlns="http://www.w3.org/2000/svg">
<g id="Cart">
<path id="Cart_2" fill-rule="evenodd" clip-rule="evenodd" d="M10.5 28H30.5C31.163 28 31.7989 28.2107 32.2678 28.5858C32.7366 28.9609 33 29.4696 33 30C33 30.5304 32.7366 31.0391 32.2678 31.4142C31.7989 31.7893 31.163 32 30.5 32H8C7.33696 32 6.70107 31.7893 6.23223 31.4142C5.76339 31.0391 5.5 30.5304 5.5 30V4H3C2.33696 4 1.70107 3.78929 1.23223 3.41421C0.763393 3.03914 0.5 2.53043 0.5 2C0.5 1.46957 0.763393 0.960859 1.23223 0.585786C1.70107 0.210714 2.33696 0 3 0H8C8.66304 0 9.29893 0.210714 9.76777 0.585786C10.2366 0.960859 10.5 1.46957 10.5 2V6.002L10.6825 6H35.3175C38.18 6 40.5 7.79 40.5 10C40.5 10.2933 40.4583 10.5827 40.375 10.868L37.4975 20.868C36.9725 22.698 34.8675 24 32.4375 24H10.6825L10.5 23.998V28ZM9.25 40C8.25544 40 7.30161 39.6839 6.59835 39.1213C5.89509 38.5587 5.5 37.7957 5.5 37C5.5 36.2043 5.89509 35.4413 6.59835 34.8787C7.30161 34.3161 8.25544 34 9.25 34C10.2446 34 11.1984 34.3161 11.9017 34.8787C12.6049 35.4413 13 36.2043 13 37C13 37.7957 12.6049 38.5587 11.9017 39.1213C11.1984 39.6839 10.2446 40 9.25 40ZM31.75 40C30.7554 40 29.8016 39.6839 29.0983 39.1213C28.3951 38.5587 28 37.7957 28 37C28 36.2043 28.3951 35.4413 29.0983 34.8787C29.8016 34.3161 30.7554 34 31.75 34C32.7446 34 33.6984 34.3161 34.4016 34.8787C35.1049 35.4413 35.5 36.2043 35.5 37C35.5 37.7957 35.1049 38.5587 34.4016 39.1213C33.6984 39.6839 32.7446 40 31.75 40ZM10.5 10V20H32.5775L35.5 10H10.5Z" fill="#74D7C8"/>
</g>
</svg>
