<svg width="56" height="57" viewBox="0 0 56 57" fill="none" xmlns="http://www.w3.org/2000/svg">
<path id="Vector" d="M12.9248 46.0035C11.6349 46.0035 10.5588 45.4633 9.6964 44.383C8.834 43.3027 8.40187 41.9575 8.4 40.3475V6.1525C8.4 4.5425 8.83213 3.1985 9.6964 2.1205C10.5607 1.0425 11.6368 0.502333 12.9248 0.5H51.478C52.766 0.5 53.8421 1.04017 54.7064 2.1205C55.5707 3.20083 56.0019 4.546 56 6.156V40.3475C56 41.9575 55.5688 43.3027 54.7064 44.383C53.844 45.4633 52.7679 46.0023 51.478 46L12.9248 46.0035ZM30.8588 26.4035L11.2 8.109V40.344C11.2 40.9717 11.3615 41.4873 11.6844 41.891C12.0073 42.2947 12.4208 42.4965 12.9248 42.4965H51.478C51.9801 42.4965 52.3927 42.2947 52.7156 41.891C53.0385 41.4873 53.2 40.9717 53.2 40.344V8.109L33.5412 26.3965C33.1343 26.7745 32.6872 26.9635 32.2 26.9635C31.7128 26.9635 31.2657 26.7745 30.8588 26.3965M32.2 23.397L52.6624 4.4025C52.5541 4.26717 52.4375 4.16567 52.3124 4.098C52.1855 4.03033 52.0147 3.9965 51.8 3.9965H12.6C12.4208 3.9965 12.2416 4.0525 12.0624 4.1645C11.8832 4.2765 11.7395 4.40017 11.6312 4.5355L32.2 23.397ZM4.5248 56.4965C3.23493 56.4965 2.1588 55.9575 1.2964 54.8795C0.434 53.8015 0.00186667 52.4575 0 50.8475V19.3475C0 18.8482 0.133466 18.4317 0.4004 18.098C0.667333 17.7643 1.00053 17.5975 1.4 17.5975C1.79947 17.5975 2.13267 17.7643 2.3996 18.098C2.66653 18.4317 2.8 18.8482 2.8 19.3475V50.8475C2.8 51.4752 2.96147 51.9908 3.2844 52.3945C3.60733 52.7982 4.0208 53 4.5248 53H44.478C44.8756 53 45.2079 53.1668 45.4748 53.5005C45.7417 53.8342 45.8761 54.2507 45.878 54.75C45.8799 55.2493 45.7455 55.6658 45.4748 55.9995C45.2041 56.3332 44.8719 56.5 44.478 56.5L4.5248 56.4965ZM53.2 8.053C53.2 7.40667 53.1375 6.765 53.0124 6.128C52.8855 5.491 52.7688 4.917 52.6624 4.406C52.5541 4.27067 52.4375 4.16567 52.3124 4.098C52.1855 4.03033 52.0147 3.9965 51.8 3.9965H12.6C12.4208 3.9965 12.2416 4.0525 12.0624 4.1645C11.8832 4.2765 11.7395 4.40017 11.6312 4.5355C11.5229 5.04883 11.424 5.61583 11.3344 6.2295C11.2448 6.84317 11.2 7.451 11.2 8.053V4H53.2V8.053Z" fill="black"/>
</svg>
