<svg width="25" height="24" viewBox="0 0 25 24" fill="none" xmlns="http://www.w3.org/2000/svg">
<g id="fa--close 1" clip-path="url(#clip0_257_141)">
<path id="Vector" d="M24.2595 19.5C24.2595 19.9878 24.0759 20.4024 23.7088 20.7439L21.0337 23.2317C20.6665 23.5732 20.2207 23.7439 19.6962 23.7439C19.1717 23.7439 18.7258 23.5732 18.3587 23.2317L12.5758 17.8537L6.79295 23.2317C6.42579 23.5732 5.97995 23.7439 5.45543 23.7439C4.9309 23.7439 4.48506 23.5732 4.1179 23.2317L1.44284 20.7439C1.07567 20.4024 0.89209 19.9878 0.89209 19.5C0.89209 19.0122 1.07567 18.5976 1.44284 18.2561L7.22568 12.878L1.44284 7.5C1.07567 7.15853 0.89209 6.7439 0.89209 6.25609C0.89209 5.76829 1.07567 5.35366 1.44284 5.01219L4.1179 2.52439C4.48506 2.18292 4.9309 2.01219 5.45543 2.01219C5.97995 2.01219 6.42579 2.18292 6.79295 2.52439L12.5758 7.90244L18.3587 2.52439C18.7258 2.18292 19.1717 2.01219 19.6962 2.01219C20.2207 2.01219 20.6665 2.18292 21.0337 2.52439L23.7088 5.01219C24.0759 5.35366 24.2595 5.76829 24.2595 6.25609C24.2595 6.7439 24.0759 7.15853 23.7088 7.5L17.9259 12.878L23.7088 18.2561C24.0759 18.5976 24.2595 19.0122 24.2595 19.5Z" fill="#74D7C8"/>
</g>
<defs>
<clipPath id="clip0_257_141">
<rect width="24" height="24" fill="white" transform="translate(0.575684)"/>
</clipPath>
</defs>
</svg>
