<svg width="72" height="72" viewBox="0 0 72 72" fill="none" xmlns="http://www.w3.org/2000/svg">
<g id="24 / symbols / facebook">
<path id="icon" fill-rule="evenodd" clip-rule="evenodd" d="M12 6H60C63.3137 6 66 8.68629 66 12V60C66 63.3137 63.3137 66 60 66H12C8.68629 66 6 63.3137 6 60V12C6 8.68629 8.68629 6 12 6ZM12 12V60H60V12H12ZM33.3992 36.0132H39V54H45V36.0132H50.9473V30.0132H45V27C45 25.3431 46.3431 24 48 24H51V18H48C43.0294 18 39 22.0294 39 27V30.0132H33.3992V36.0132Z" fill="#12191F"/>
</g>
</svg>
