<svg width="60" height="59" viewBox="0 0 60 59" fill="none" xmlns="http://www.w3.org/2000/svg">
<g id="Group">
<path id="Vector" d="M53.3333 1.5H6.66667C5.42899 1.5 4.242 1.99167 3.36684 2.86684C2.49167 3.742 2 4.92899 2 6.16667V52.8333C2 54.071 2.49167 55.258 3.36684 56.1332C4.242 57.0083 5.42899 57.5 6.66667 57.5H53.3333C54.571 57.5 55.758 57.0083 56.6332 56.1332C57.5083 55.258 58 54.071 58 52.8333V6.16667C58 4.92899 57.5083 3.742 56.6332 2.86684C55.758 1.99167 54.571 1.5 53.3333 1.5Z" stroke="black" stroke-width="3"/>
<path id="Vector_2" d="M22.9065 13.9443C23.5972 13.9443 24.235 14.3192 24.571 14.9243L26.8981 19.1166C27.203 19.6657 27.217 20.3299 26.9354 20.8899L25.3332 24.8332C25.3332 24.8332 25.7252 28.3363 28.4443 31.0554C31.1634 33.7746 34.6665 34.1666 34.6665 34.1666L38.5974 32.5519C39.1574 32.2719 39.8232 32.2874 40.3723 32.5908L44.577 34.9288C45.1805 35.2648 45.5554 35.901 45.5554 36.5932V41.4201C45.5554 43.8779 43.2719 45.6528 40.9432 44.8672C36.1583 43.2526 28.7321 40.1803 24.0265 35.4717C19.3194 30.7661 16.2472 23.3414 14.6325 18.5566C13.847 16.2279 15.6219 13.9443 18.0796 13.9443H22.9065Z" stroke="black" stroke-width="3" stroke-linejoin="round"/>
</g>
</svg>
