<svg width="26" height="27" viewBox="0 0 26 27" fill="none" xmlns="http://www.w3.org/2000/svg">
<g id="Heart">
<path id="Vector" d="M13 6C13 6 13 6 11.9867 4.5C10.8133 2.76 9.08 1.5 7 1.5C3.68 1.5 1 4.515 1 8.25C1 9.645 1.37333 10.935 2.01333 12C3.09333 13.815 13 25.5 13 25.5M13 6C13 6 13 6 14.0133 4.5C15.1867 2.76 16.92 1.5 19 1.5C22.32 1.5 25 4.515 25 8.25C25 9.645 24.6267 10.935 23.9867 12C22.9067 13.815 13 25.5 13 25.5" stroke="#12191F" stroke-width="2" stroke-linecap="round" stroke-linejoin="round"/>
</g>
</svg>
