<svg width="26" height="28" viewBox="0 0 26 28" fill="none" xmlns="http://www.w3.org/2000/svg">
<g id="Heart">
<path id="Vector" d="M13 25.5C12.6186 25.8233 12.6186 25.8233 12.6185 25.8232L12.6182 25.8228L12.6168 25.8212L12.6114 25.8148L12.59 25.7896L12.5069 25.6914L12.1903 25.3171C11.9171 24.9938 11.5257 24.53 11.0526 23.9678C10.1065 22.8434 8.83367 21.3251 7.52685 19.7499C6.22033 18.175 4.87856 16.5416 3.7952 15.1874C2.72466 13.8493 1.8767 12.7477 1.58423 12.2567C0.897086 11.1128 0.5 9.73392 0.5 8.25C0.5 4.29585 3.35012 1 7 1C9.29785 1 11.1816 2.39173 12.4019 4.22141C12.4021 4.22182 12.4024 4.22224 12.4027 4.22265L12.4069 4.22888L12.4128 4.23762L12.4187 4.24632L12.4245 4.25499L12.4304 4.26362L12.4362 4.27222L12.442 4.28079L12.4477 4.28932L12.4535 4.29782L12.4592 4.30629L12.4649 4.31472L12.4706 4.32312L12.4762 4.33149L12.4819 4.33982L12.4875 4.34812L12.493 4.35638L12.4986 4.36461L12.5041 4.37281L12.5097 4.38098L12.5152 4.38911L12.5206 4.39721L12.5261 4.40528L12.5315 4.41331L12.5369 4.42131L12.5423 4.42928L12.5477 4.43721L12.553 4.44512L12.5583 4.45299L12.5636 4.46082L12.5689 4.46863L12.5741 4.4764L12.5794 4.48414L12.5846 4.49185L12.5898 4.49953L12.5949 4.50717L12.6001 4.51479L12.6052 4.52237L12.6103 4.52992L12.6154 4.53743L12.6204 4.54492L12.6254 4.55237L12.6305 4.55979L12.6355 4.56718L12.6404 4.57454L12.6454 4.58187L12.6503 4.58917L12.6552 4.59643L12.6601 4.60367L12.665 4.61087L12.6698 4.61804L12.6746 4.62518L12.6794 4.63229L12.6842 4.63937L12.689 4.64642L12.6937 4.65344L12.6984 4.66042L12.7031 4.66738L12.7078 4.6743L12.7125 4.6812L12.7171 4.68807L12.7217 4.6949L12.7263 4.7017L12.7309 4.70848L12.7355 4.71522L12.74 4.72194L12.7445 4.72862L12.749 4.73528L12.7535 4.7419L12.7579 4.74849L12.7624 4.75506L12.7668 4.76159L12.7712 4.7681L12.7756 4.77458L12.7799 4.78102L12.7843 4.78744L12.7886 4.79383L12.7929 4.80019L12.7971 4.80652L12.8014 4.81282L12.8056 4.81909L12.8098 4.82533L12.814 4.83155L12.8182 4.83773L12.8224 4.84389L12.8265 4.85001L12.8306 4.85611L12.8347 4.86218L12.8388 4.86822L12.8429 4.87424L12.8469 4.88022L12.851 4.88618L12.855 4.89211L12.8589 4.89801L12.8629 4.90388L12.8669 4.90972L12.8708 4.91554L12.8747 4.92133L12.8786 4.92709L12.8825 4.93282L12.8863 4.93853L12.8902 4.9442L12.894 4.94985L12.8978 4.95548L12.9015 4.96107L12.9053 4.96664L12.9091 4.97218L12.9128 4.97769L12.9165 4.98318L12.9202 4.98864L12.9238 4.99407L12.9275 4.99947L12.9311 5.00485L12.9347 5.0102L12.9383 5.01553L12.9419 5.02082L12.9455 5.02609L12.949 5.03134L12.9525 5.03656L12.956 5.04175L12.9595 5.04691L12.963 5.05205L12.9665 5.05716L12.9699 5.06225L12.9733 5.06731L12.9767 5.07235L12.9801 5.07735L12.9835 5.08234L12.9868 5.08729L12.9901 5.09222L12.9935 5.09713L12.9968 5.10201L13 5.10681L13.5988 4.22045C14.8306 2.39373 16.7004 1 19 1C22.6499 1 25.5 4.29585 25.5 8.25C25.5 9.734 25.1029 11.113 24.4157 12.2568C24.1231 12.748 23.2752 13.8495 22.2048 15.1874C21.1214 16.5416 19.7797 18.175 18.4732 19.7499C17.1663 21.3251 15.8935 22.8434 14.9474 23.9678C14.4743 24.53 14.0829 24.9938 13.8097 25.3171L13.4931 25.6914L13.41 25.7896L13.3886 25.8148L13.3832 25.8212L13.3818 25.8228L13.3815 25.8232C13.3814 25.8233 13.3814 25.8233 13 25.5ZM13 25.5L12.6186 25.8233L13 26.2732L13.3814 25.8233L13 25.5Z" fill="#74D7C8" stroke="#74D7C8"/>
</g>
</svg>
