<svg width="78" height="84" viewBox="0 0 78 84" fill="none" xmlns="http://www.w3.org/2000/svg">
<g id="iconamoon:delivery-fill">
<path id="Vector" fill-rule="evenodd" clip-rule="evenodd" d="M9.25 7C8.38805 7 7.5614 7.36875 6.9519 8.02513C6.34241 8.6815 6 9.57174 6 10.5V59.5C6 64.239 8.91525 68.243 12.9193 69.552C13.5153 71.6695 14.7173 73.5301 16.3536 74.8682C17.9899 76.2063 19.977 76.9535 22.031 77.0032C24.0851 77.0529 26.1013 76.4025 27.7918 75.1448C29.4822 73.8872 30.7605 72.0865 31.4443 70H52.0557C52.7395 72.0865 54.0178 73.8872 55.7082 75.1448C57.3987 76.4025 59.4149 77.0529 61.469 77.0032C63.523 76.9535 65.5101 76.2063 67.1464 74.8682C68.7827 73.5301 69.9847 71.6695 70.5807 69.552C72.5829 68.8978 74.3366 67.5673 75.5826 65.7572C76.8286 63.947 77.5009 61.7533 77.5 59.5V45.5C77.5 43.2019 77.0797 40.9262 76.263 38.803C75.4464 36.6798 74.2494 34.7507 72.7405 33.1256C71.2315 31.5006 69.4401 30.2116 67.4686 29.3321C65.4971 28.4527 63.384 28 61.25 28H48.25V10.5C48.25 9.57174 47.9076 8.6815 47.2981 8.02513C46.6886 7.36875 45.862 7 45 7H9.25ZM52.0557 63H48.25V35H61.25C63.8359 35 66.3158 36.1062 68.1443 38.0754C69.9728 40.0445 71 42.7152 71 45.5V59.5C70.9998 60.4282 70.6573 61.3183 70.0478 61.9745C69.2169 60.1 67.8884 58.5331 66.2305 57.4718C64.5725 56.4106 62.6596 55.9027 60.7335 56.0125C58.8075 56.1223 56.955 56.8448 55.4103 58.0886C53.8657 59.3323 52.6982 61.0416 52.0557 63ZM19.9523 64.0255C20.2521 63.6912 20.6107 63.4246 21.0072 63.2411C21.4037 63.0577 21.8302 62.9612 22.2617 62.9571C22.6932 62.9531 23.1212 63.0416 23.5206 63.2176C23.92 63.3936 24.2829 63.6535 24.588 63.9821C24.8932 64.3107 25.1345 64.7015 25.2979 65.1317C25.4613 65.5618 25.5436 66.0227 25.5398 66.4874C25.5361 66.9521 25.4464 67.4114 25.2761 67.8384C25.1057 68.2654 24.8582 68.6516 24.5477 68.9745C23.9348 69.6121 23.1138 69.9648 22.2617 69.9569C21.4096 69.9489 20.5944 69.5808 19.9918 68.9319C19.3893 68.2829 19.0475 67.4051 19.0401 66.4874C19.0327 65.5697 19.3602 64.6856 19.9523 64.0255ZM58 66.5C58 65.5717 58.3424 64.6815 58.9519 64.0251C59.5614 63.3687 60.388 63 61.25 63C62.112 63 62.9386 63.3687 63.5481 64.0251C64.1576 64.6815 64.5 65.5717 64.5 66.5C64.5 67.4283 64.1576 68.3185 63.5481 68.9749C62.9386 69.6313 62.112 70 61.25 70C60.388 70 59.5614 69.6313 58.9519 68.9749C58.3424 68.3185 58 67.4283 58 66.5Z" fill="#CB495A"/>
</g>
</svg>
