<svg width="84" height="84" viewBox="0 0 84 84" fill="none" xmlns="http://www.w3.org/2000/svg">
<g id="icon-park-outline:tomato">
<g id="Group">
<path id="Vector" d="M42 77C61.3305 77 77 64.0728 77 48.125C77 36.8515 69.1688 27.4768 57.75 22.722L51.625 25.375L52.5 35L41.125 31.5L29.75 35V25.375L24.5 22.722C14.0385 27.7148 7 37.4378 7 48.125C7 64.0728 22.6695 77 42 77Z" stroke="#CB495A" stroke-width="7" stroke-linecap="round" stroke-linejoin="round"/>
<path id="Vector_2" d="M41.125 7L47.7908 15.9547L63 17.3425L51.9103 25.3452L55.125 36.75L41.125 31.5L27.125 36.75L30.3397 25.3452L19.25 17.3425L34.4592 15.9547L41.125 7Z" stroke="#CB495A" stroke-width="7" stroke-linecap="round" stroke-linejoin="round"/>
</g>
</g>
</svg>
