<svg width="84" height="84" viewBox="0 0 84 84" fill="none" xmlns="http://www.w3.org/2000/svg">
<g id="mingcute:tool-fill">
<g id="Group">
<path id="Vector" fill-rule="evenodd" clip-rule="evenodd" d="M26.3447 9.29947C30.7195 8.17233 35.3206 8.27652 39.6398 9.60053C43.9591 10.9245 47.8282 13.4168 50.8197 16.802C53.8112 20.1872 55.8086 24.3335 56.5913 28.7828C57.374 33.2321 56.9114 37.8111 55.2547 42.014L71.3512 55.6395C72.572 56.6711 73.5654 57.9449 74.2685 59.3803C74.9716 60.8157 75.3692 62.3813 75.436 63.9782C75.5028 65.5752 75.2375 67.1686 74.6568 68.6577C74.0761 70.1468 73.1926 71.4991 72.0623 72.6292C70.932 73.7592 69.5795 74.6424 68.0902 75.2228C66.601 75.8032 65.0076 76.0682 63.4106 76.001C61.8137 75.9338 60.2482 75.5359 58.8129 74.8325C57.3777 74.1291 56.1041 73.1355 55.0727 71.9145L41.4542 55.825C37.2509 57.4844 32.6705 57.949 28.2195 57.1676C23.7685 56.3861 19.6203 54.3891 16.2335 51.3971C12.8468 48.4052 10.3534 44.5349 9.029 40.2143C7.70463 35.8936 7.60089 31.2909 8.72924 26.915C8.88834 26.3001 9.21015 25.7395 9.66083 25.292C10.1115 24.8445 10.6744 24.5267 11.2904 24.372C11.9064 24.2173 12.5527 24.2314 13.1613 24.4128C13.77 24.5942 14.3185 24.9363 14.7492 25.403L25.4067 36.9775L33.4462 34.02L36.4107 25.97L24.8292 15.33C24.3597 14.8994 24.0153 14.3499 23.8324 13.7396C23.6495 13.1294 23.6349 12.481 23.7902 11.8632C23.9455 11.2453 24.2648 10.6809 24.7145 10.2296C25.1642 9.77833 25.7274 9.45695 26.3447 9.29947Z" fill="#CB495A"/>
</g>
</g>
</svg>
