<svg width="51" height="50" viewBox="0 0 51 50" fill="none" xmlns="http://www.w3.org/2000/svg">
<path id="Vector" d="M25.5 25C29.2888 25 32.9224 23.683 35.6015 21.3388C38.2806 18.9946 39.7857 15.8152 39.7857 12.5C39.7857 9.18479 38.2806 6.00537 35.6015 3.66117C32.9224 1.31696 29.2888 0 25.5 0C21.7112 0 18.0776 1.31696 15.3985 3.66117C12.7194 6.00537 11.2143 9.18479 11.2143 12.5C11.2143 15.8152 12.7194 18.9946 15.3985 21.3388C18.0776 23.683 21.7112 25 25.5 25ZM20.3996 29.6875C9.40625 29.6875 0.5 37.4805 0.5 47.0996C0.5 48.7012 1.98438 50 3.81473 50H47.1853C49.0156 50 50.5 48.7012 50.5 47.0996C50.5 37.4805 41.5938 29.6875 30.6004 29.6875H20.3996Z" fill="#74D7C8"/>
</svg>
