<svg width="28" height="22" viewBox="0 0 28 22" fill="none" xmlns="http://www.w3.org/2000/svg">
<path id="Vector" fill-rule="evenodd" clip-rule="evenodd" d="M2.04878 16.9231C2.59215 16.9231 3.11327 17.1905 3.49749 17.6666C3.88171 18.1426 4.09756 18.7883 4.09756 19.4615C4.09756 20.1348 3.88171 20.7804 3.49749 21.2565C3.11327 21.7326 2.59215 22 2.04878 22C1.50541 22 0.984295 21.7326 0.600074 21.2565C0.215853 20.7804 0 20.1348 0 19.4615C0 18.7883 0.215853 18.1426 0.600074 17.6666C0.984295 17.1905 1.50541 16.9231 2.04878 16.9231ZM26.6328 17.7692C27.3881 17.7692 28 18.5206 28 19.4615C28 20.3965 27.3922 21.1538 26.6328 21.1538H7.51356C7.33398 21.1545 7.15606 21.1112 6.99003 21.0264C6.82399 20.9416 6.67312 20.817 6.54607 20.6598C6.41902 20.5025 6.31831 20.3157 6.24971 20.1101C6.18111 19.9044 6.14598 19.684 6.14634 19.4615C6.14634 18.5265 6.75415 17.7692 7.51356 17.7692H26.6328ZM2.04878 8.46154C2.59215 8.46154 3.11327 8.72898 3.49749 9.20504C3.88171 9.68109 4.09756 10.3268 4.09756 11C4.09756 11.6732 3.88171 12.3189 3.49749 12.795C3.11327 13.271 2.59215 13.5385 2.04878 13.5385C1.50541 13.5385 0.984295 13.271 0.600074 12.795C0.215853 12.3189 0 11.6732 0 11C0 10.3268 0.215853 9.68109 0.600074 9.20504C0.984295 8.72898 1.50541 8.46154 2.04878 8.46154ZM26.6328 9.30769C27.3881 9.30769 28 10.0591 28 11C28 11.935 27.3922 12.6923 26.6328 12.6923H7.51356C7.33398 12.693 7.15606 12.6497 6.99003 12.5649C6.82399 12.4801 6.67312 12.3555 6.54607 12.1982C6.41902 12.041 6.31831 11.8542 6.24971 11.6485C6.18111 11.4429 6.14598 11.2225 6.14634 11C6.14634 10.065 6.75415 9.30769 7.51356 9.30769H26.6328ZM2.04878 0C2.59215 0 3.11327 0.267444 3.49749 0.743498C3.88171 1.21955 4.09756 1.86522 4.09756 2.53846C4.09756 3.2117 3.88171 3.85737 3.49749 4.33343C3.11327 4.80948 2.59215 5.07692 2.04878 5.07692C1.50541 5.07692 0.984295 4.80948 0.600074 4.33343C0.215853 3.85737 0 3.2117 0 2.53846C0 1.86522 0.215853 1.21955 0.600074 0.743498C0.984295 0.267444 1.50541 0 2.04878 0ZM26.6328 0.846154C27.3881 0.846154 28 1.59754 28 2.53846C28 3.47346 27.3922 4.23077 26.6328 4.23077H7.51356C7.33398 4.23144 7.15606 4.18813 6.99003 4.10335C6.82399 4.01856 6.67312 3.89396 6.54607 3.7367C6.41902 3.57944 6.31831 3.39263 6.24971 3.187C6.18111 2.98137 6.14598 2.76097 6.14634 2.53846C6.14634 1.60346 6.75415 0.846154 7.51356 0.846154H26.6328Z" fill="#569E95"/>
</svg>
