<svg width="51" height="50" viewBox="0 0 51 50" fill="none" xmlns="http://www.w3.org/2000/svg">
<g id="Heart">
<rect x="0.5" width="50" height="50" rx="25" fill="#74D7C8" fill-opacity="0.3"/>
<path id="Vector" d="M25.5 37C25.1186 37.3233 25.1186 37.3233 25.1185 37.3232L25.1182 37.3228L25.1169 37.3214L25.112 37.3155L25.0924 37.2924L25.0161 37.2024L24.726 36.8592C24.4755 36.5629 24.1167 36.1377 23.683 35.6223C22.8157 34.5916 21.6489 33.1997 20.4509 31.7556C19.2532 30.3119 18.023 28.8144 17.0297 27.5728C16.0492 26.3473 15.2697 25.3349 14.9998 24.8816C14.366 23.8266 14 22.5552 14 21.1875C14 17.5446 16.6268 14.5 20 14.5C22.1245 14.5 23.8627 15.7867 24.9863 17.4713C24.9866 17.4718 24.9868 17.4722 24.9871 17.4726L24.9909 17.4781L24.9963 17.4862L25.0017 17.4941L25.007 17.5021L25.0124 17.51L25.0177 17.5179L25.023 17.5257L25.0283 17.5336L25.0336 17.5413L25.0388 17.5491L25.044 17.5568L25.0492 17.5645L25.0544 17.5722L25.0596 17.5798L25.0647 17.5874L25.0698 17.595L25.0749 17.6026L25.08 17.6101L25.0851 17.6176L25.0901 17.625L25.0951 17.6325L25.1001 17.6398L25.1051 17.6472L25.11 17.6545L25.115 17.6618L25.1199 17.6691L25.1248 17.6764L25.1296 17.6836L25.1345 17.6908L25.1393 17.6979L25.1441 17.705L25.1489 17.7121L25.1537 17.7192L25.1585 17.7262L25.1632 17.7333L25.1679 17.7402L25.1726 17.7472L25.1773 17.7541L25.1819 17.761L25.1866 17.7678L25.1912 17.7747L25.1958 17.7815L25.2004 17.7883L25.2049 17.795L25.2095 17.8017L25.214 17.8084L25.2185 17.8151L25.223 17.8217L25.2274 17.8283L25.2319 17.8349L25.2363 17.8414L25.2407 17.8479L25.2451 17.8544L25.2494 17.8609L25.2538 17.8673L25.2581 17.8737L25.2624 17.8801L25.2667 17.8865L25.271 17.8928L25.2752 17.8991L25.2794 17.9053L25.2837 17.9116L25.2879 17.9178L25.292 17.924L25.2962 17.9301L25.3003 17.9362L25.3045 17.9423L25.3086 17.9484L25.3126 17.9545L25.3167 17.9605L25.3208 17.9665L25.3248 17.9724L25.3288 17.9784L25.3328 17.9843L25.3368 17.9902L25.3407 17.996L25.3447 18.0018L25.3486 18.0076L25.3525 18.0134L25.3564 18.0192L25.3602 18.0249L25.3641 18.0306L25.3679 18.0363L25.3717 18.0419L25.3755 18.0475L25.3793 18.0531L25.383 18.0587L25.3868 18.0642L25.3905 18.0697L25.3942 18.0752L25.3979 18.0807L25.4016 18.0861L25.4052 18.0915L25.4089 18.0969L25.4125 18.1023L25.4161 18.1076L25.4197 18.1129L25.4232 18.1182L25.4268 18.1234L25.4303 18.1287L25.4338 18.1339L25.4373 18.139L25.4408 18.1442L25.4443 18.1493L25.4477 18.1544L25.4512 18.1595L25.4546 18.1646L25.458 18.1696L25.4613 18.1746L25.4647 18.1796L25.4681 18.1845L25.4714 18.1895L25.4747 18.1944L25.478 18.1992L25.4813 18.2041L25.4845 18.2089L25.4878 18.2137L25.491 18.2185L25.4942 18.2233L25.4974 18.228L25.5 18.2318L26.0143 17.4705L26.4289 17.75L26.0146 17.4701L26.0145 17.4703C27.1485 15.7886 28.8738 14.5 31 14.5C34.3732 14.5 37 17.5446 37 21.1875C37 22.5556 36.6338 23.8273 35.9997 24.8825C35.7292 25.3362 34.9501 26.3481 33.9703 27.5728C32.977 28.8144 31.7468 30.3119 30.5491 31.7556C29.3511 33.1997 28.1843 34.5916 27.317 35.6223C26.8833 36.1377 26.5245 36.5629 26.274 36.8592L25.9839 37.2024L25.9076 37.2924L25.888 37.3155L25.8831 37.3214L25.8818 37.3228L25.8815 37.3232C25.8814 37.3233 25.8814 37.3233 25.5 37ZM25.5 37L25.1186 37.3233L25.5 37.7732L25.8814 37.3233L25.5 37Z" fill="#74D7C8" stroke="#74D7C8"/>
</g>
</svg>
