<svg width="24" height="25" viewBox="0 0 24 25" fill="none" xmlns="http://www.w3.org/2000/svg">
<g id="iconamoon:delivery-fill">
<path id="Vector" fill-rule="evenodd" clip-rule="evenodd" d="M2 2.5C1.73478 2.5 1.48043 2.60536 1.29289 2.79289C1.10536 2.98043 1 3.23478 1 3.5V17.5C1 18.854 1.897 19.998 3.129 20.372C3.3124 20.977 3.68224 21.5086 4.18573 21.8909C4.68921 22.2732 5.3006 22.4867 5.93263 22.5009C6.56466 22.5151 7.18502 22.3293 7.70516 21.9699C8.22529 21.6106 8.61862 21.0962 8.829 20.5H15.171C15.3814 21.0962 15.7747 21.6106 16.2948 21.9699C16.815 22.3293 17.4353 22.5151 18.0674 22.5009C18.6994 22.4867 19.3108 22.2732 19.8143 21.8909C20.3178 21.5086 20.6876 20.977 20.871 20.372C21.4871 20.1851 22.0266 19.805 22.41 19.2878C22.7934 18.7706 23.0003 18.1438 23 17.5V13.5C23 12.8434 22.8707 12.1932 22.6194 11.5866C22.3681 10.98 21.9998 10.4288 21.5355 9.96447C21.0712 9.50017 20.52 9.13188 19.9134 8.8806C19.3068 8.62933 18.6566 8.5 18 8.5H14V3.5C14 3.23478 13.8946 2.98043 13.7071 2.79289C13.5196 2.60536 13.2652 2.5 13 2.5H2ZM15.171 18.5H14V10.5H18C18.7956 10.5 19.5587 10.8161 20.1213 11.3787C20.6839 11.9413 21 12.7044 21 13.5V17.5C20.9999 17.7652 20.8946 18.0195 20.707 18.207C20.4513 17.6714 20.0426 17.2237 19.5325 16.9205C19.0223 16.6173 18.4337 16.4722 17.8411 16.5036C17.2485 16.5349 16.6785 16.7414 16.2032 17.0967C15.7279 17.4521 15.3687 17.9404 15.171 18.5ZM5.293 18.793C5.38525 18.6975 5.49559 18.6213 5.6176 18.5689C5.7396 18.5165 5.87082 18.4889 6.0036 18.4877C6.13638 18.4866 6.26806 18.5119 6.39095 18.5622C6.51385 18.6125 6.6255 18.6867 6.7194 18.7806C6.81329 18.8745 6.88754 18.9862 6.93782 19.109C6.9881 19.2319 7.0134 19.3636 7.01225 19.4964C7.0111 19.6292 6.98351 19.7604 6.9311 19.8824C6.87869 20.0044 6.80251 20.1148 6.707 20.207C6.5184 20.3892 6.2658 20.49 6.0036 20.4877C5.7414 20.4854 5.49059 20.3802 5.30518 20.1948C5.11977 20.0094 5.0146 19.7586 5.01233 19.4964C5.01005 19.2342 5.11084 18.9816 5.293 18.793ZM17 19.5C17 19.2348 17.1054 18.9804 17.2929 18.7929C17.4804 18.6054 17.7348 18.5 18 18.5C18.2652 18.5 18.5196 18.6054 18.7071 18.7929C18.8946 18.9804 19 19.2348 19 19.5C19 19.7652 18.8946 20.0196 18.7071 20.2071C18.5196 20.3946 18.2652 20.5 18 20.5C17.7348 20.5 17.4804 20.3946 17.2929 20.2071C17.1054 20.0196 17 19.7652 17 19.5Z" fill="#74D7C8"/>
</g>
</svg>
