<svg width="97" height="96" viewBox="0 0 97 96" fill="none" xmlns="http://www.w3.org/2000/svg">
<g id="Logo" clip-path="url(#clip0_473_409)">
<g id="g1">
<path id="path9" d="M44.6255 95.8982C37.1891 95.1927 29.0928 91.7824 22.9065 86.7498C20.4393 84.7428 19.8036 83.8717 20.2518 83.112C20.7307 82.3001 24.2599 79.1762 24.6982 79.1762C24.9295 79.1762 25.7003 79.6976 26.5161 80.406C38.4475 90.7668 56.3468 91.7581 70.0319 82.816C74.8928 79.6399 78.229 76.3813 81.8106 71.3114C83.7357 68.5863 83.4055 68.6075 86.5001 71.0102C88.9529 72.9145 88.9413 72.8121 87.0201 75.6183C77.8049 89.078 64.5387 96.1434 48.755 95.9978C46.8787 95.9805 45.0204 95.9357 44.6255 95.8982ZM38.0739 81.767C38.0739 79.3804 38.0739 79.3804 38.6573 79.2735C39.3663 79.1436 43.6822 78.4821 55.8441 76.6395C60.9283 75.8692 65.7747 75.121 66.6138 74.9769C70.3162 74.3411 70.0243 74.1835 70.0243 76.818C70.0243 78.1028 69.9595 79.1958 69.8803 79.2469C69.7308 79.3433 57.8022 81.1993 45.2986 83.0717C38.0739 84.1535 38.0739 84.1535 38.0739 81.767ZM7.72214 75.946C7.71286 75.0963 7.71946 70.8501 7.7368 66.51C7.75415 62.1699 7.70117 58.5757 7.61906 58.5229C7.53695 58.4701 6.02215 58.6739 4.25283 58.9758C2.39283 59.2932 0.969048 59.455 0.877425 59.3594C0.445485 58.9088 0.351507 54.1533 0.767914 53.818C0.801183 53.7912 1.95923 53.5831 3.34135 53.3557C4.72348 53.1282 8.35828 52.5247 11.4187 52.0146C18.772 50.7889 19.6813 50.6875 21.3429 50.9073C24.7861 51.3627 26.8247 53.4112 27.3186 56.912C28.2875 63.7798 22.8022 68.6898 14.1607 68.6898C13.1239 68.6898 13.1239 68.6898 13.1016 71.3582C13.0558 76.8383 13.1611 76.5885 10.7007 77.0558C7.47538 77.6685 7.74204 77.7679 7.72214 75.946ZM17.712 63.0915C20.8787 62.4097 22.0987 61.2942 22.0987 59.0806C22.0987 57.7978 22.0641 57.6771 21.5488 57.1617C20.8373 56.4502 18.6613 56.3146 15.7079 56.7977C12.6735 57.2941 12.9444 56.9488 12.9444 60.321C12.9444 61.9028 12.9983 63.2531 13.0641 63.3218C13.3043 63.5724 16.1282 63.4325 17.712 63.0915ZM33.1677 73.2464C33.1019 73.1777 33.048 69.3031 33.048 64.6361C33.048 56.1507 33.048 56.1507 33.4519 56.059C34.0261 55.9287 37.6735 55.3946 37.9896 55.3946C38.2916 55.3946 38.3978 72.507 38.0969 72.701C37.6069 73.0169 33.3945 73.483 33.1677 73.2464ZM44.4841 70.4687C44.254 68.1432 44.4459 67.4941 46.0616 65.1319C48.9201 60.9526 51.0021 57.7711 50.9287 57.6945C50.8878 57.6519 49.7443 57.7911 48.3876 58.0038C44.4571 58.6202 44.7485 58.7458 44.6819 56.4061C44.6509 55.3145 44.6661 54.3955 44.7157 54.3639C44.965 54.2046 56.2814 52.5699 56.7846 52.6205C57.3698 52.6793 57.3698 52.6793 57.328 54.26C57.2805 56.0534 57.6519 55.3699 52.7014 62.7742C50.4823 66.0932 50.2472 66.5096 50.6835 66.3477C51.0114 66.2261 56.7079 65.3192 57.1439 65.3192C57.5029 65.3192 57.5108 65.3838 57.3998 67.4074C57.3369 68.556 57.2475 69.5352 57.2012 69.5835C57.0209 69.7716 46.0921 71.4986 45.082 71.4986C44.6128 71.4986 44.5805 71.443 44.4841 70.4687ZM63.6073 68.5628C63.4471 68.4975 63.3829 67.8945 63.3829 66.4553C63.3829 64.4393 63.3829 64.4393 64.2003 63.2407C68.9753 56.239 69.8335 54.9225 69.6614 54.8627C69.552 54.8246 68.3028 54.9824 66.8854 55.2133C65.4681 55.4442 64.181 55.5821 64.0252 55.5197C63.6664 55.3761 63.5943 51.2749 63.9506 51.2749C64.0654 51.2749 66.6876 50.8855 69.7777 50.4096C72.8679 49.9337 75.5203 49.594 75.6719 49.6547C75.8943 49.7438 75.9468 50.1193 75.9433 51.5967C75.9387 53.5356 75.5351 54.2521 70.1827 61.8244C69.685 62.5286 69.3173 63.146 69.3657 63.1965C69.4141 63.247 70.8307 63.0711 72.5138 62.8057C74.1968 62.5402 75.6983 62.3231 75.8505 62.3231C76.1542 62.3231 76.2699 66.1056 75.9808 66.5805C75.8951 66.7211 73.7317 67.1406 70.464 67.6503C63.897 68.6744 63.8848 68.676 63.6073 68.5628ZM84.8016 65.133C83.398 64.8259 82.5866 64.1563 81.8728 62.7163C81.4921 61.9482 81.5788 59.7385 82.0315 58.6716C83.0769 56.2076 86.6621 54.0694 90.1152 53.8504C91.2388 53.7792 91.3853 53.5739 90.8094 52.8774C90.2535 52.2052 89.2517 51.9894 87.7944 52.2279C86.6878 52.4091 83.6624 53.5339 83.1648 53.9492C82.7808 54.2696 82.6038 53.8827 82.3803 52.2346C82.1344 50.4202 82.1521 50.3945 84.5635 49.0599C88.4234 46.9236 92.1012 46.8929 94.762 48.9748C95.1094 49.2466 95.3178 49.5488 95.2621 49.7002C95.2096 49.8429 95.2551 49.9396 95.3632 49.9151C95.4712 49.8905 95.7712 50.2918 96.0298 50.8068C96.5 51.7431 96.5 51.7431 96.5 57.6416C96.5 63.5402 96.5 63.5402 94.7948 63.8584C92.2355 64.336 91.7764 64.3102 91.6322 63.6807C91.4577 62.9191 91.3888 62.8535 91.0902 63.1649C89.6187 64.7001 86.8224 65.5752 84.8016 65.133ZM89.6775 60.264C90.9493 59.6218 91.2049 59.2601 91.2049 58.1025C91.2049 56.9374 91.2658 56.966 89.4444 57.2744C87.1871 57.6565 86.4173 58.2763 86.6557 59.5199C86.8715 60.6453 88.2503 60.9848 89.6775 60.264ZM29.9633 47.0409C29.7886 40.8249 29.8081 28.083 29.9925 27.9641C30.2789 27.7795 42.1043 25.9727 43.2793 25.9341C44.2665 25.9016 44.2665 25.9016 44.3167 28.171C44.367 30.4404 44.367 30.4404 43.868 30.5435C43.5936 30.6003 41.4911 30.9213 39.1958 31.257C35.0225 31.8673 35.0225 31.8673 35.0225 33.4144C35.0225 34.2653 35.0831 34.9963 35.1571 35.0388C35.2311 35.0814 36.4629 34.9212 37.8944 34.6829C41.9947 34.0003 41.6638 33.8516 41.6638 36.377C41.6638 37.5553 41.6012 38.5597 41.5247 38.6091C41.4482 38.6584 40.1356 38.8786 38.6079 39.0983C37.0802 39.318 35.6485 39.537 35.4263 39.585C35.0383 39.6687 35.0225 39.7497 35.0225 41.6458C35.0225 42.7313 35.0881 43.5772 35.1682 43.5255C35.6107 43.2403 44.2533 42.1128 44.3784 42.324C44.5093 42.5449 44.4298 46.7665 44.292 46.9102C44.1337 47.0754 33.1296 48.8249 31.31 48.9742C30.0207 49.08 30.0207 49.08 29.9633 47.0409ZM47.0736 46.0517C46.8954 45.934 46.8077 45.2371 46.7498 43.4798C46.6703 41.0694 46.6703 41.0694 47.3531 40.0951C47.7287 39.5592 50.0957 36.292 52.6131 32.8346C58.1848 25.1826 58.6341 24.5366 58.4889 24.3851C58.4259 24.3194 57.5829 24.4014 56.6156 24.5673C51.1558 25.5039 47.8277 26.0071 47.4203 25.9576C46.9877 25.9051 46.9513 25.8201 46.8363 24.5908C46.6717 22.8334 46.8561 20.0603 47.1547 19.8018C47.2834 19.6903 50.9672 19.0214 55.3409 18.3152C59.7147 17.609 64.4454 16.8415 65.8538 16.6095C69.5526 16.0002 69.3838 15.8748 69.4456 19.2791C69.4951 22.0108 69.4951 22.0108 67.4711 24.8073C65.1266 28.0467 61.5927 32.8908 60.3888 34.5154C57.8068 37.9996 57.4172 38.5597 57.5086 38.6551C57.5639 38.7127 59.1303 38.5021 60.9896 38.1869C67.1583 37.1413 69.1476 36.8475 69.3176 36.9571C69.4104 37.0169 69.4858 38.355 69.4858 39.9421C69.4858 42.8186 69.4858 42.8186 68.9922 42.9246C68.256 43.0825 63.3612 43.8865 59.793 44.4354C58.0653 44.7012 54.8076 45.2113 52.5536 45.5688C48.2671 46.2488 47.4771 46.3185 47.0736 46.0517ZM5.40047 44.0591C5.08397 43.6613 5.28435 40.2527 5.77128 37.7513C11.2737 9.48495 39.0791 -6.98454 64.6602 2.87066C68.593 4.38578 73.6833 7.29039 76.3708 9.553C84.6574 16.5292 89.8315 24.4279 92.0333 33.4627C92.5901 35.7474 92.5867 36.3516 92.0144 36.8212C91.5956 37.1649 88.2061 38.6557 87.6149 38.7563C87.1179 38.8409 86.5066 38.5223 86.6127 38.2339C86.668 38.0834 86.6393 38.008 86.5488 38.0663C86.3624 38.1865 86.3081 38.0279 85.9109 36.2036C85.0895 32.4314 83.1075 27.9626 80.5527 24.1227C71.7025 10.8207 55.2457 4.20421 40.526 8.02992C25.7588 11.868 13.6793 26.0166 11.8401 41.6296C11.7257 42.6012 11.5648 43.3528 11.4825 43.2998C11.4003 43.2468 11.3782 43.3262 11.4334 43.4763C11.5477 43.7869 11.2379 43.8801 9.17499 44.1553C7.09519 44.4327 5.66877 44.3964 5.40047 44.0591ZM19.8551 41.6287C16.7335 40.4705 17.7574 35.5332 21.069 35.775C24.7509 36.0438 24.8631 41.143 21.2012 41.7849C20.8397 41.8483 20.2682 41.782 19.8551 41.6287ZM74.2425 33.2021C72.5252 32.565 71.787 30.129 72.8577 28.6328C74.4774 26.3697 77.8766 27.1629 78.2267 29.8857C78.5222 32.1843 76.3569 33.9866 74.2425 33.2021ZM31.12 22.5377C29.8759 21.9644 29.6637 20.1116 30.7344 19.1717C31.8389 18.2022 33.6056 18.8269 33.8668 20.2793C34.1459 21.8313 32.5085 23.1775 31.12 22.5377ZM47.9926 15.6092C46.7486 15.0359 46.5363 13.1831 47.6071 12.2432C48.7115 11.2737 50.4782 11.8984 50.7394 13.3508C51.0185 14.9028 49.3812 16.249 47.9926 15.6092Z" fill="#F7F7F7"/>
</g>
</g>
<defs>
<clipPath id="clip0_473_409">
<rect width="96" height="96" fill="white" transform="translate(0.5)"/>
</clipPath>
</defs>
</svg>
