<svg width="32" height="36" viewBox="0 0 32 36" fill="none" xmlns="http://www.w3.org/2000/svg">
<path id="Vector" d="M19.9998 17.9976V33.7576C20.0798 34.3576 19.8798 34.9976 19.4198 35.4176C19.2347 35.603 19.015 35.7501 18.773 35.8504C18.5311 35.9508 18.2717 36.0024 18.0098 36.0024C17.7478 36.0024 17.4885 35.9508 17.2465 35.8504C17.0046 35.7501 16.7848 35.603 16.5998 35.4176L12.5798 31.3976C12.3618 31.1842 12.196 30.9234 12.0954 30.6355C11.9948 30.3475 11.9621 30.0402 11.9998 29.7376V17.9976H11.9398L0.419774 3.23756C0.0949903 2.82062 -0.0515586 2.29207 0.0121497 1.76742C0.075858 1.24276 0.344644 0.764651 0.759774 0.437559C1.13977 0.157559 1.55977 -0.00244141 1.99977 -0.00244141H29.9998C30.4398 -0.00244141 30.8598 0.157559 31.2398 0.437559C31.6549 0.764651 31.9237 1.24276 31.9874 1.76742C32.0511 2.29207 31.9046 2.82062 31.5798 3.23756L20.0598 17.9976H19.9998Z" fill="black"/>
</svg>
