<svg width="72" height="72" viewBox="0 0 72 72" fill="none" xmlns="http://www.w3.org/2000/svg">
<g id="24 / symbols / instagram">
<path id="icon" fill-rule="evenodd" clip-rule="evenodd" d="M48 6H24C14.0589 6 6 14.0589 6 24V48C6 57.9411 14.0589 66 24 66H48C57.9411 66 66 57.9411 66 48V24C66 14.0589 57.9411 6 48 6ZM12 24C12 17.3726 17.3726 12 24 12H48C54.6274 12 60 17.3726 60 24V48C60 54.6274 54.6274 60 48 60H24C17.3726 60 12 54.6274 12 48V24ZM36 51C27.7157 51 21 44.2843 21 36C21 27.7157 27.7157 21 36 21C44.2843 21 51 27.7157 51 36C51 44.2843 44.2843 51 36 51ZM36 45C40.9706 45 45 40.9706 45 36C45 31.0294 40.9706 27 36 27C31.0294 27 27 31.0294 27 36C27 40.9706 31.0294 45 36 45ZM54 20.9996C54 22.6563 52.6569 23.9993 51 23.9993C49.3431 23.9993 48 22.6563 48 20.9996C48 19.343 49.3431 18 51 18C52.6569 18 54 19.343 54 20.9996Z" fill="#12191F"/>
</g>
</svg>
