<svg width="72" height="72" viewBox="0 0 72 72" fill="none" xmlns="http://www.w3.org/2000/svg">
<g id="24 / symbols / twitter">
<path id="icon" fill-rule="evenodd" clip-rule="evenodd" d="M63.3586 13.5248L67.6028 14.0205L65.695 17.844C64.7646 19.7086 63.8333 21.5732 62.9011 23.4377C62.7906 23.8327 62.5963 24.1789 62.309 24.6296C62.1889 24.818 61.7787 25.4171 61.7596 25.4458C61.6513 25.6082 61.5712 25.7363 61.5135 25.839V33.0046C61.5135 51.3405 43.7686 62.9923 27.0106 62.9923C23.5815 62.9923 20.9762 62.828 17.9929 62.177C13.0834 61.1056 9.42982 58.976 7.75792 55.254L6.03663 51.422L10.2198 51.0373C14.004 50.6893 17.2851 49.9684 19.8048 49.003C12.8873 47.8905 9.0108 44.8524 9.0108 39.1467V36.1467H12.0108C12.6699 36.1467 13.2643 36.0932 13.7956 35.995C8.604 32.8909 6.00367 27.9114 6.00367 21.0046C6.0031 20.7102 6.0031 20.7102 6.00133 20.3954C5.98182 16.9141 6.16882 15.0539 7.12184 12.6798C7.73263 11.1582 8.61549 9.74965 9.8037 8.459L12.0675 6L14.2685 8.5154C21.5218 16.8048 28.6918 21.8339 36.0125 22.4422C36.0438 14.7931 41.8246 9.00457 49.513 9.00457C53.0972 9.00457 56.3484 10.365 58.9034 12.8182C60.3018 13.1055 61.787 13.3413 63.3586 13.5248ZM56.7259 18.486L55.8062 18.2778L55.1711 17.5808C53.6354 15.8956 51.7078 15.0046 49.513 15.0046C45.1241 15.0046 42.0124 18.1317 42.0124 22.5046C42.0124 23.2192 41.9939 23.6683 41.9049 24.2584C41.5497 26.6135 40.2287 28.5046 37.5123 28.5046C28.5182 28.5046 20.4041 23.6863 12.4917 15.4568C12.0838 16.6968 11.9878 17.9714 12.0012 20.3618C12.003 20.6815 12.003 20.6815 12.0037 21.0046C12.0037 27.1486 14.4928 30.5093 20.3864 32.3826L22.4777 33.0473V35.2416C22.4777 37.9026 19.9567 40.4074 16.2681 41.5294C17.9589 42.8123 21.417 43.5046 27.0117 43.5046H30.0117V46.5046C30.0117 50.8028 25.0729 54.1682 17.6122 55.9256C20.0453 56.671 23.285 56.9923 27.0106 56.9923C40.8539 56.9923 55.5135 47.3664 55.5135 33.0046V25.5046C55.5135 24.6232 55.769 23.8582 56.1934 23.0628C56.3594 22.7518 56.5421 22.4553 56.7676 22.1171C56.8101 22.0535 56.9676 21.8228 57.0926 21.6384L57.3304 21.1629C57.7157 20.3923 58.1008 19.6218 58.4858 18.8513C57.8875 18.738 57.3009 18.6162 56.7259 18.486Z" fill="#12191F"/>
</g>
</svg>
